/* XPM */
static char *result[] = {
/* columns rows colors chars-per-pixel */
"64 64 211 2 ",
"   c #270E00",
".  c #2A0F00",
"X  c #2D1100",
"o  c #341301",
"O  c #3B1501",
"+  c #371804",
"@  c #3D1902",
"#  c #3E1E08",
"$  c #3F290C",
"%  c #302C29",
"&  c #411701",
"*  c #431A02",
"=  c #4B1C01",
"-  c #431E09",
";  c #481F09",
":  c #511E01",
">  c #452206",
",  c #4D2001",
"<  c #462309",
"1  c #4A250A",
"2  c #4D2A0B",
"3  c #422C0E",
"4  c #532202",
"5  c #5B2401",
"6  c #532B0B",
"7  c #592E0D",
"8  c #5A330E",
"9  c #54310E",
"0  c #422F12",
"q  c #522E14",
"w  c #4C3917",
"e  c #593B15",
"r  c #59311B",
"t  c #543918",
"y  c #642B06",
"u  c #662A06",
"i  c #62340C",
"p  c #6C3B0E",
"a  c #603C0F",
"s  c #743F0E",
"d  c #643D12",
"f  c #4D3D20",
"g  c #463B36",
"h  c #693E24",
"j  c #5D4119",
"k  c #75430F",
"l  c #7A450F",
"z  c #654413",
"x  c #6C4313",
"c  c #664419",
"v  c #6C4B1A",
"b  c #64481B",
"n  c #724514",
"m  c #7D4C14",
"M  c #744E1B",
"N  c #724816",
"B  c #7C521D",
"V  c #7F5117",
"C  c #55422A",
"Z  c #544934",
"A  c #684627",
"S  c #714F20",
"D  c #6B5027",
"F  c #7B5623",
"G  c #775827",
"H  c #7A593D",
"J  c #79603A",
"K  c #2A414D",
"L  c #2C4451",
"P  c #5E5249",
"I  c #43545B",
"U  c #655B4D",
"Y  c #705C57",
"T  c #705A4F",
"R  c #7D6941",
"E  c #756C5B",
"W  c #746256",
"Q  c #53626A",
"!  c #7E7B70",
"~  c #814E14",
"^  c #845215",
"/  c #8A5513",
"(  c #83551A",
")  c #855C1D",
"_  c #8C5B1A",
"`  c #8B5916",
"'  c #905F1B",
"]  c #935D16",
"[  c #8B631C",
"{  c #95631D",
"}  c #9B671B",
"|  c #9C6719",
" . c #A36F1F",
".. c #A6711D",
"X. c #A9731E",
"o. c #845B27",
"O. c #815C37",
"+. c #836124",
"@. c #8C6324",
"#. c #946621",
"$. c #956B26",
"%. c #9C6C23",
"&. c #956B2C",
"*. c #9A6E2B",
"=. c #9D722B",
"-. c #886934",
";. c #966E38",
":. c #9B7634",
">. c #977338",
",. c #A36F21",
"<. c #A47524",
"1. c #A97522",
"2. c #AC7A25",
"3. c #A47529",
"4. c #A47A2C",
"5. c #AC7C2B",
"6. c #B37C22",
"7. c #B07B28",
"8. c #A97E32",
"9. c #A27A38",
"0. c #886948",
"q. c #967A47",
"w. c #837355",
"e. c #856851",
"r. c #A27B42",
"t. c #837A69",
"y. c #AE8128",
"u. c #AF8126",
"i. c #B38027",
"p. c #BA8425",
"a. c #B3812A",
"s. c #B9852A",
"d. c #BB8A2D",
"f. c #BB8827",
"g. c #AC8434",
"h. c #A4813D",
"j. c #AD863C",
"k. c #AB8539",
"l. c #B38633",
"z. c #B68A30",
"x. c #BD8E34",
"c. c #B68E3E",
"v. c #BD9035",
"b. c #BB923C",
"n. c #C18726",
"m. c #C08C2C",
"M. c #C78D28",
"N. c #C6932E",
"B. c #C9932C",
"V. c #D79125",
"C. c #D3952B",
"Z. c #C18D31",
"A. c #C59334",
"S. c #CB9532",
"D. c #CB9934",
"F. c #C39538",
"G. c #CC9C3B",
"H. c #C2983E",
"J. c #DB9D32",
"K. c #D59934",
"L. c #DDA02E",
"P. c #D2A23C",
"I. c #DBA43D",
"U. c #DCA83F",
"Y. c #E2A32E",
"T. c #E1A73B",
"R. c #99835C",
"E. c #AE8A46",
"W. c #B28C43",
"Q. c #BA9448",
"!. c #AE9455",
"~. c #AB8B54",
"^. c #8E857A",
"/. c #9A8D7D",
"(. c #A08E67",
"). c #AC9769",
"_. c #BBA66F",
"`. c #CA9C41",
"'. c #C39D47",
"]. c #C09E52",
"[. c #CBA34A",
"{. c #D3A443",
"}. c #DAA643",
"|. c #DAAC44",
" X c #D3A24B",
".X c #D6AA49",
"XX c #DCAD4C",
"oX c #D5A847",
"OX c #DCB24E",
"+X c #C7A558",
"@X c #D4AB53",
"#X c #DBB254",
"$X c #D7B559",
"%X c #E1B254",
"&X c #D1AF62",
"*X c #DEB960",
"=X c #C9B170",
"-X c #C8AD6C",
";X c #E4BC63",
":X c #EBC35E",
">X c #E5C164",
",X c #E9C565",
"<X c #F0CE64",
"1X c #F3D571",
"2X c #EED57A",
"3X c #A39680",
"4X c #A6A196",
"5X c #9BA0A1",
"6X c #ACAEAE",
"7X c #B6AFA9",
"8X c black",
/* pixels */
"8X8X8X8X8X8X8X8X8X8X8X8X8X8X8X8X8X8X8X8X8X8X8X8X8X8X8X8X8X8X8X8X8X8X8X8X8X8X8X8X8X8X8X8X8X8X8X8X8X8X8X8X8X8X8X8X8X8X8X8X8X8X8X8X",
"8X8X8X8X8X8X8X8X8X8X8X8X8X8X8X8X8X8X8X8X8X8X8X8X8X8X8X8X8X8X8X8X8X8X8X8X8X8X8X8X8X8X8X8X8X8X8X8X8X8X8X8X8X8X8X8X8X8X8X8X8X8X8X8X",
"8X8X8X8X8X8X8X8X8X8X8X8X8X8X8X8X8X8X8X8X8X8X8X8X8X8X8X8X8X8X8X8X8X8X8X8X8X8X8X8X8X8X8X8X8X8X8X8X8X8X8X8X8X8X8X8X8X8X8X8X8X8X8X8X",
"8X8X8X8X8X8X8X8X8X8X8X8X8X8X8X8X8X8X8X8X8X8X8X8X8X8X8X8X8X8X8X8X8X8X8X8X8X8X8X8X8X8X8X8X8X8X8X8X8X8X8X8X8X8X8X8X8X8X8X8X8X8X8X8X",
"8X8X8X8X8X8X8X8X8X8X8X8X8X8X8X8X8X8X8X8X8X8X8X8X8X@ o = , 4 4 > o 8X8X8X8X8X8X8X8X8X8X8X8X8X8X8X8X8X8X8X8X8X8X8X8X8X8X8X8X8X8X8X",
"8X8X8X8X8X8X8X8X8X8X8X8X8X8X8X8X8X8X8X8X8X8X8X8XO o o + , 4 , O + o o & O + + 8X8X8X8X8X8X8X8X8X8X8X8X8X8X8X8X8X8X8X8X8X8X8X8X8X",
"8X8X8X8X8X8X8X8X8X8X8X8X8X8X8X8X8X8X8X8X8X+ O + @ O @ & * @ o O + o o O O + + o 8X8X8X8X8X8X8X8X8X8X8X8X8X8X8X8X8X8X8X8X8X8X8X8X",
"8X8X8X8X8X8X8X8X8X8X8X8X8X8X8X8X8X8X8XO o + O O * * + + O + o o o o & & + X o o + 8X8X8X8X8X8X8X8X8X8X8X8X8X8X8X8X8X8X8X8X8X8X8X",
"8X8X8X8X8X8X8X8X8X8X8X8X8X8X8X8X8X8X+ O O O & & O O o X X X + o X X o X + X . + + o . 8X8X8X8X8X8X8X8X8X8X8X8X8X8X8X8X8X8X8X8X8X",
"8X8X8X8X8X8X8X8X8X8X8X8X8X8X8X8X8X+ & & * * & O o + X . .   o o X   X X . X . o . . . + O 8X8X8X8X8X8X8X8X8X8X8X8X8X8X8X8X8X8X8X",
"8X8X8X8X8X8X8X8X8X8X8X8X8X8X8X8XX + & & = & O o o o . . .     X X . X   .     . . . o o o o 8X8X8X8X8X8X8X8X8X8X8X8X8X8X8X8X8X8X",
"8X8X8X8X8X8X8X8X8X8X8X8X8X8X8X+ o & & & - O o o o . . X o     X o X o   o . . . o . o o o o * 8X8X8X8X8X8X8X8X8X8X8X8X8X8X8X8X8X",
"8X8X8X8X8X8X8X8X8X8X8X8X8X8X- o O = O O = & o + O . o o o o X X o . o . + o . o . o o o o o o 8X8X8X8X8X8X8X8X8X8X8X8X8X8X8X8X8X",
"8X8X8X8X8X8X8X8X8X8X8X8X8X8XO + = = O O = & O = & o O o o O o o O O o . X + o O o . . o o O o o 8X8X8X8X8X8X8X8X8X8X8X8X8X8X8X8X",
"8X8X8X8X8X8X8X8X8X8X8X8X8XO @ * * = O & = * & = * O = + o * & O & & O . . - X o o . . o O + O O O 8X8X8X8X8X8X8X8X8X8X8X8X8X8X8X",
"8X8X8X8X8X8X8X8X8X8X8X8X8X* * O & 4 o * = - * 4 & * : & = * = : : & & O X - & + o o . o o . . o O 8X8X8X8X8X8X8X8X8X8X8X8X8X8X8X",
"8X8X8X8X8X8X8X8X8X8X8X8X8X< O o = : X , = O * 4 * 4 : = 4 : = 5 5 = : = & O & O + & O + + o X o + + 8X8X8X8X8X8X8X8X8X8X8X8X8X8X",
"8X8X8X8X8X8X8X8X8X8X8X8X6 * O O = + . = = + O : : 5 4 4 4 4 * 5 5 = 5 4 4 * & O o & O + @ + O o o @ O 8X8X8X8X8X8X8X8X8X8X8X8X8X",
"8X8X8X8X8X8X8X8X8X8X8X8X; = & O * . o * = O + = : 5 , 4 : , * 5 : : y 5 5 : : & O O * o + * # o . O * 8X8X8X8X8X8X8X8X8X8X8X8X8X",
"8X8X8X8X8X8X8X8X8X8X8X8X* * & O + . o O : = O & = = , = = = = 4 : = u u 5 5 : : O O = = X * O = . o + 8X8X8X8X8X8X8X8X8X8X8X8X8X",
"8X8X8X8X8X8X8X8X8X8X8X8X& & O O O o o o : = O & * & * = = O = 4 : : : u : : : : O + O 4 + O O > O o O O 8X8X8X8X8X8X8X8X8X8X8X8X",
"8X8X8X8X8X8X8X8X8X8X8X8XO & O O O o o O = = & o & & & & : O + = 5 : : 5 : = = = : * o o * o @ O * o o O 8X8X8X8X8X8X8X8X8X8X8X8X",
"8X8X8X8X8X8X8X8X8X8X8X8XO & O O O o o O & * & o O O O & = * o = : = : ; : = & & : = * o & * & & = @ o O 8X8X8X8X8X8X8X8X8X8X8X8X",
"8X8X8X8X8X8X8X8X8X8X8X8XO O o O o o O + O O & o O O O O = * O = : = = ; = = = * * = & o & & & & O = @ + 8X8X8X8X8X8X8X8X8X8X8X8X",
"8X8X8X8X8X8X8X8X8X8X8X8XO O O O O o & o + O & + - - + o = = O * * = O & = = & = = & & o o = & : & O * * 8X8X8X8X8X8X8X8X8X8X8X8X",
"8X8X8X8X8X8X8X8X8X8X8X8XO O O o o o O o @ < - # 2 6 * . O & O O O & O O ; = & = = & & O o & & & O + @ * 8X8X8X8X8X8X8X8X8X8X8X8X",
"8X8X8X8X8X8X8X8X8X8X8X8X8XO o o . o o o q t C W W A 2 o o O O O O O O o = & O & & = O O O O o O o o + O 8X8X8X8X8X8X8X8X8X8X8X8X",
"8X8X8X8X8X8X8X8X8X8X8X8X8XO o o o o # q @.J 7X6X5Xw.A - o o O O & + O X * & o O O & O X O o X . . . o + 8X8X8X8X8X8X8X8X8X8X8X8X",
"8X8X8X8X8X8X8X8X8X8X8X8X8XO o o o . e G 3.0.6XQ L ! >.2 o X O O O O X o o + o O X o O o o o O o o o o o 8X8X8X8X8X8X8X8X8X8X8X8X",
"8X8X8X8X8X8X8X8X8X8X8X8X8X& O O o o e *.$.>.t.K I (.j.e @ o o o o O . o . o o O O . O O o . O O O o O O 8X8X8X8X8X8X8X8X8X8X8X8X",
"8X8X8X8X8X8X8X8X8X8X8X8X8X8XO O o 1 3.s.4.p.Z.E.Q.`.:.v 2 + o . X X o . . o o o o o o O O o o O & O O O 8X8X8X8X8X8X8X8X8X8X8X8X",
"8X8X8X8X8X8X8X8X8X8X8X8X8X8X8XO - 9.}.C.s.B.Y.J.K.b.:.o.v 1 + o o . X . o . o o o O . o O O O O O & & & 8X8X8X8X8X8X8X8X8X8X8X8X",
"8X8X8X8X8X8X8X8X8X8X8X8X8X8X8X; >. XJ.M.7.S.T.I.P.G.l.:.+.9 * + o X   . o X o X X O X X X & O O o O & & 8X8X8X8X8X8X8X8X8X8X8X8X",
"8X8X8X8X8X8X8X8X8X8X8X8X8X8X8X>. XJ.C.7.3.S.I.U.U.F.l.4.4.M 2 O O O . . O O X X X X X X X o & O O O & 8X8X8X8X8X8X8X8X8X8X8X8X8X",
"8X8X8X8X8X8X8X8X8X8X8X8X8X8X8X XK.V.n.,.5.K.I.}.P.c.k.j.c.:.9 + O & o o O & o . .   X . o o & o O O O 8X8X8X8X8X8X8X8X8X8X8X8X8X",
"8X8X8X8X8X8X8X8X8X8X8X8X8X8X].K.V.C.j.=.7.}.XX#X+X+XQ.h.g.y.M o O O o o O & & o X . X X o & O O O & O & 8X8X8X8X8X8X8X8X8X8X8X8X",
"8X8X8X8X8X8X8X8X8X8X8X8X8X8X}.I.G.-.f 9.`.%X;X$X&X0.;.j.h.k.[ + o O o o o o O O o o X + o O O & O & & & 8X8X8X8X8X8X8X8X8X8X8X8X",
"8X8X8X8X8X8X8X8X8X8X8X8X8XR.!.q.Z f f r.#X:X>X>X).g A g.g.g.o.o o O o X O o X O & o o + o O O O O & & = 8X8X8X8X8X8X8X8X8X8X8X8X",
"8X8X8X8X8X8X8X8X8X8X8X8X8XU g % t +.;.#X:X<X2X_.U Y A j.y.l.) O & o O X o X X X & O O + O O & & & ; 8X8X8X8X8X8X8X8X8X8X8X8X8X8X",
"8X8X8X8X8X8X8X8X8X8X8X8X8X8XO.f @.l.XX<X1X2X_.E 3XY O.b.z.N.k + & O O O o O o o O O O & & + O & ; r T 8X8X8X8X8X8X8X8X8X8X8X8X8X",
"8X8X8X8X8X8X8X8X8X8X8X8X8X8X8X=.:.#X;X,X=XE E 4X^.e.W.v.N.[ * o o O o O o O o o + & O & - - * * r h e.8X8X8X8X8X8X8X8X8X8X8X8X8X",
"8X8X8X8X8X8X8X8X8X8X8X8X8X8X8XF.q.q.w.E P Y 3X3X).+XF.S.<.$ + @ O + + O O + + O & * & & & - 6 7 h O.;.~.8X8X8X8X8X8X8X8X8X8X8X8X",
"8X8X8X8X8X8X8X8X8X8X8X8X8X8X8X8X8X0.H q.)._.=X&XoXA.N.S.r > > > 2 2 ; ; > > > > < < 8X8X8Xr i x 8X8X8X8X8X8X8X8X8X8X8X8X8X8X8X8X",
"8X8X8X8X8X8X8X8X8X8X8X8X8X8X8X8X8X8X8X{.`.K.U.G.A.N.8X8XS z d z z z d r z v v v c A 8X8X8X8XN B 8X8X8X8X8X8X8X8X8X8X8X8X8X8X8X8X",
"8X8X8X8X8X8X8X8X8X8X8X8X8X8X8X8X8X8X8X8X8Xn.B.M.8X8X8X8X&.[ [ [ [ [ [ [ <.z.v.Q.j.q.8X8X8X8XM o.8X8X8X8X8X8X8X8X8X8X8X8X8X8X8X8X",
"8X8X8X8X8X8X8X8X8X8X8X8X8X8X8X8X8X8X8X8X8X8X8X8X8X8X8X8X5.1.2.5.y.y.u.X.f.D.G.$X Xb.!.8X8X8XV @.8X8X8X8X8X8X8X8X8X8X8X8X8X8X8X8X",
"8X8X8X8X8X8X8X8X8X8X8X8X8X8X8X8X8X8X8X8X8X8X8X8X8X8X8X8X5.2.7.d.v.v.d.u.f.N.P.OXoXx.Q.8X8X8X( o.8X8X8X8X8X8X8X8X8X8X8X8X8X8X8X8X",
"8X8X8X8X8X8X8X8X8X8X8X8X8X8X8X8X8X8X8X8X8X8X8X8X8X8X8X8X4.%.5.v.v.[.v.<.f.D.P.#XoXB.H.+X8X8X( o.h.8X8X8X8X8X8X8X8X8X8X8X8X8X8X8X",
"8X8X8X8X8X8X8X8X8X8X8X8X8X8X8X8X8X8X8X8X8X8X8X8X8X8X8X8X8X#.} d.H.[.x._  .A.{.oX|.D.v.[.8X8XB B j.8X8X8X8X8X8X8X8X8X8X8X8X8X8X8X",
"8X8X8X8X8X8X8X8X8X8X8X8X8X8X8X8X8X8X8X8X8X8X8X8X8X8X8X8X8X#.( ,.v.G.m.' / p.G.{.P.D.u.u.+X8Xo.V 9.8X8X8X8X8X8X8X8X8X8X8X8X8X8X8X",
"8X8X8X8X8X8X8X8X8X8X8X8X8X8X8X8X8X8X8X8X8X8X8X8X8X8X8X8X8X%.` ~ ( <.7...` X.A.{.P.B.....Q.&Xg.{ 8.8X8X8X8X8X8X8X8X8X8X8X8X8X8X8X",
"8X8X8X8X8X8X8X8X8X8X8X8X8X8X8X8X8X8X8X8X8X8X8X8X8X8X8X8X8X8X#.l i p ~ | ] | 6.G.S.M.| =.[.$XG.i.8X8X8X8X8X8X8X8X8X8X8X8X8X8X8X8X",
"8X8X8X8X8X8X8X8X8X8X8X8X8X8X8X8X8X8X8X8X8X8X8X8X8X8X8X8X8X8X#.^ p y k m x ] | A.N.n.` =.@XOX|.A.8X8X8X8X8X8X8X8X8X8X8X8X8X8X8X8X",
"8X8X8X8X8X8X8X8X8X8X8X8X8X8X8X8X8X8X8X8X8X8X8X8X8X8X8X8X8X8X*.` k p m x 8 / ] d.d.p.m } G.P.|.P.8X8X8X8X8X8X8X8X8X8X8X8X8X8X8X8X",
"8X8X8X8X8X8X8X8X8X8X8X8X8X8X8X8X8X8X8X8X8X8X8X8X8X8X8X8X8X8X=.' l s ^ p i / { a.6...n ^ p.d.G.8X8X8X8X8X8X8X8X8X8X8X8X8X8X8X8X8X",
"8X8X8X8X8X8X8X8X8X8X8X8X8X8X8X8X8X8X8X8X8X8X8X8X8X8X8X8X8X8X&.( l l ^ N x / { a.X.N 6 x 1.d.D.8X8X8X8X8X8X8X8X8X8X8X8X8X8X8X8X8X",
"8X8X8X8X8X8X8X8X8X8X8X8X8X8X8X8X8X8X8X8X8X8X8X8X8X8X8X8X8X8X;.V n ~ ' @.o._ ' ,.,.d 8 s 1.Z.F.8X8X8X8X8X8X8X8X8X8X8X8X8X8X8X8X8X",
"8X8X8X8X8X8X8X8X8X8X8X8X8X8X8X8X8X8X8X8X8X8X8X8X8X8X8X8X).).q.&.( ^ W.'.H.l.,.} 1.o.&.3.6.m.Z.8X8X8X8X8X8X8X8X8X8X8X8X8X8X8X8X8X",
"8X8X8X8X8X8X8X8X8X8X8X8X8X8X8X8X8X8X8X8X8X8X8X8X8X8X8X8XR -.-.*.$.#.W.j.=.l.s.1.%.S =.s.6.6.8.8X8X8X8X8X8X8X8X8X8X8X8X8X8X8X8X8X",
"8X8X8X8X8X8X8X8X8X8X8X8X8X8X8X8X8X8X8X8X8X8X8X8X8X8X8X8XG v F _ $.D D M o.+.m.3._ c [ 2.1.%.v 8X8X8X8X8X8X8X8X8X8X8X8X8X8X8X8X8X",
"8X8X8X8X8X8X8X8X8X8X8X8X8X8X8X8X8X8X8X8X8X8X8X8X8X8X8X8Xb j v M w 0 v ( F o.$.w $ 3 3 e z t 8X8X8X8X8X8X8X8X8X8X8X8X8X8X8X8X8X8X",
"8X8X8X8X8X8X8X8X8X8X8X8X8X8X8X8X8X8X8X8X8X8X8X8X8X8X8X8X8X8X8X8X8X8X8X8X8X8X8X8X8X8X8X8X8X8X8X8X8X8X8X8X8X8X8X8X8X8X8X8X8X8X8X8X",
"8X8X8X8X8X8X8X8X8X8X8X8X8X8X8X8X8X8X8X8X8X8X8X8X8X8X8X8X8X8X8X8X8X8X8X8X8X8X8X8X8X8X8X8X8X8X8X8X8X8X8X8X8X8X8X8X8X8X8X8X8X8X8X8X",
"8X8X8X8X8X8X8X8X8X8X8X8X8X8X8X8X8X8X8X8X8X8X8X8X8X8X8X8X8X8X8X8X8X8X8X8X8X8X8X8X8X8X8X8X8X8X8X8X8X8X8X8X8X8X8X8X8X8X8X8X8X8X8X8X"
};
