/* XPM */
static char *result[] = {
/* columns rows colors chars-per-pixel */
"64 64 105 2 ",
"   c #020202",
".  c #0C0B0B",
"X  c #150D0D",
"o  c #141212",
"O  c #1B1212",
"+  c #1B1C1C",
"@  c #211616",
"#  c #231B1B",
"$  c #2B1D1D",
"%  c #232323",
"&  c #2D2424",
"*  c #2C2A2A",
"=  c #342424",
"-  c #392626",
";  c #342C2C",
":  c #3C2A2A",
">  c #353333",
",  c #3B3434",
"<  c #3D3B3B",
"1  c #432D2D",
"2  c #443232",
"3  c #4C3333",
"4  c #413B3B",
"5  c #4B3939",
"6  c #513636",
"7  c #553939",
"8  c #5B3D3D",
"9  c #434242",
"0  c #494646",
"q  c #474848",
"w  c #4B4B4B",
"e  c #5E4040",
"r  c #514E4E",
"t  c #535252",
"y  c #585757",
"u  c #5C5C5C",
"i  c #644242",
"p  c #694646",
"a  c #6E4949",
"s  c #734D4D",
"d  c #784F4F",
"f  c #665656",
"g  c #775050",
"h  c #7C5353",
"j  c #5F6161",
"k  c #646464",
"l  c #676868",
"z  c #6B6B6B",
"x  c #6F7070",
"c  c #737373",
"v  c #767878",
"b  c #7C7D7D",
"n  c #825757",
"m  c #865959",
"M  c #8C5D5D",
"N  c #915F5F",
"B  c #8E6161",
"V  c #836F6F",
"C  c #946262",
"Z  c #9A6666",
"A  c #956D6D",
"S  c #9D6969",
"D  c #A46D6D",
"F  c #AD7474",
"G  c #B17676",
"H  c #B57979",
"J  c #BB7D7D",
"K  c #C07F7F",
"L  c #848484",
"P  c #868888",
"I  c #8C8D8D",
"U  c #928F8F",
"Y  c #8E9090",
"T  c #929292",
"R  c #9D9D9D",
"E  c #BF8080",
"W  c #A3A4A4",
"Q  c #AAABAB",
"!  c #AFB0B0",
"~  c #B3B4B4",
"^  c #BABCBC",
"/  c #C48282",
"(  c #CA8686",
")  c #CD8989",
"_  c #D38D8D",
"`  c #D79090",
"'  c #DC9292",
"]  c #E29696",
"[  c #E49999",
"{  c #EB9D9D",
"}  c #EFA0A0",
"|  c #F4A3A3",
" . c #F9A6A6",
".. c #FFAAAA",
"X. c #C2C2C2",
"o. c #CBCBCB",
"O. c #D3D3D3",
"+. c #D7D8D8",
"@. c #DBDCDC",
"#. c #DFE0E0",
"$. c #E4E4E4",
"%. c #ECECEC",
"&. c #F4F4F4",
"*. c #FEFEFE",
"=. c black",
/* pixels */
"=.=.=.=.=.=.=.=.=.=.=.=.=.=.=.=.=.=.=.=.=.=.=.=.=.z 9 * # O @ @ @ @ O # * q =.=.=.=.=.=.=.=.=.=.=.=.=.=.=.=.=.=.=.=.=.=.=.=.=.=.",
"=.=.=.=.=.=.=.=.=.=.=.=.=.=.=.=.=.=.=.=.=.=.w > 5 a C G / _ ` ] ] ` _ / F M i 2 , u =.=.=.=.=.=.=.=.=.=.=.=.=.=.=.=.=.=.=.=.=.=.",
"=.=.=.=.=.=.=.=.=.=.=.=.=.=.=.=.=.=.=.=., 3 Z ` | ............................| ( m 1 < =.=.=.=.=.=.=.=.=.=.=.=.=.=.=.=.=.=.=.=.",
"=.=.=.=.=.=.=.=.=.=.=.=.=.=.=.=.=.=.9 5 G | ........................................{ D : t =.=.=.=.=.=.=.=.=.=.=.=.=.=.=.=.=.=.",
"=.=.=.=.=.=.=.=.=.=.=.=.=.=.=.=.=.& m | ................................................[ s > =.=.=.=.=.=.=.=.=.=.=.=.=.=.=.=.=.",
"=.=.=.=.=.=.=.=.=.=.=.=.=.=.=.=.= G ...................................................... .C ; =.=.=.=.=.=.=.=.=.=.=.=.=.=.=.=.",
"=.=.=.=.=.=.=.=.=.=.=.=.=.=.=.* G .. .........................................................N , =.=.=.=.=.=.=.=.=.=.=.=.=.=.=.",
"=.=.=.=.=.=.=.=.=.=.=.=.=.=.4 N .............................................................. .p k =.=.=.=.=.=.=.=.=.=.=.=.=.=.",
"=.=.=.=.=.=.=.=.=.=.=.=.=.k 7 | .................................. .............................] - =.=.=.=.=.=.=.=.=.=.=.=.=.=.",
"=.=.=.=.=.=.=.=.=.k < : - X E ....................................................................C X 1 ; < j =.=.=.=.=.=.=.=.=.",
"=.=.=.=.=.=.t ; 3 m J [ Z 7  .....................................................................[ : / ] J m 5 ; y =.=.=.=.=.=.",
"=.=.=.=.9 1 B ` | | ] ( 2 D ............ .....} _ J / { ........ .......] / J `  ...................s p ) ] | | _ M 1 9 =.=.=.=.",
"=.=.=.= C } | ' / H F Z - ] .............. .F 3 , w 4 2 Z | ........] s 2 9 0 , e ( ................G - F F G E ' | { Z = =.=.=.",
"=.=.: (  .` J G F F G s 7  ...............M < W $.&.%.^ q a | ....` 3 z o.&.&.@.L : J ..............[ - Z G G F F H _ | ( - =.=.",
"=.; / | / G F G G G G 7 n ..............G < O.*.*.*.*.*.$.w M ..| 8 b &.*.*.*.*.*.W 2 ' ............| 7 h G G F G F F E } / ; =.",
"j s | E F F G F G F F 1 F ............| 6 W *.*.*.*.*.*.*.o.2 ] H 9 %.*.*.*.*.*.*.*.z n ..............a i G F G F G F F J | a k ",
"* J ' F F F G G G G D - ( ............_ 4 $.*.*.*.*.%.&.*.*.y F s I *.*.%.&.*.*.*.*.^ 5 } .. .........B 6 G F G G F F F F _ H & ",
"# ` _ K ) ` ] { [ [ / - ' ............H t *.*.*.*.~ < < X.*.b m e ~ *.~ > < o.*.*.*.@.2 [ ............D 3 _ ] { { [ ` ) / _ ` # ",
"$ [ .. .............` 1 { ............J w *.*.*.&.q     u *.v m e ! *.<     k *.*.*.@.2 [ ............H 8  ............. ...] $ ",
"@ ' ................_ 3 } ............` 4 $.*.*.*.t     z &.w J h L *.w     c *.*.*.! 6  .............E 3 | ................' @ ",
"# ( ................( 3 | ............| 8 Y *.*.*.o.u k @.^ 4 } / 4 $.o.u k @.*.*.&.u C ..............H 3 | ................( % ",
"< D ................/ 3 | ............../ : ^ *.*.*.*.*.O.4 D ..| a j &.*.*.*.*.*.L 5 { ............ .F 1 } ................D < ",
"z s ................/ 3 | ................F ; b o.$.O.T , m  .....{ e q Q @.#.^ k 2 _ .............. .Z 1 { ................s z ",
"=.2 { ..............( 3 | ..................) p 1 , 4 8 H ..........| S 3 2 , 2 n ] ................} M : | ..............| 2 =.",
"=.4 J ..............' 2 [ ......................[ ` ] ..................| ] ' | ...................._ h 3 | ..............J , =.",
"=.=.p ..............} 1 _ ..................................{ ` [ | ..............................| J i 7 | ..............i =.=.",
"=.=.; ) ..............7 G ..............................[ h 1 : : 7 F | ..........................` G 3 s .............._ ; =.=.",
"=.=.=.i  .............n h ............................' 1 p / ] ` S 1 a | ......................| J D $ Z ............ .i =.=.=.",
"=.=.=.> F ............H 3 | ..........................` D  .........{ G | ......................_ G M $ E ............F ; =.=.=.",
"=.=.=.=.- ` ..........{ 1 ( ..................................................................[ G G i 3 ' ..........` - =.=.=.=.",
"=.=.=.=.=.5 [ ..........h h ....................D _ ......................../ J ............| J F D = n { ........[ 3 =.=.=.=.=.",
"=.=.=.=.=.< 1 ` ........) : ' ........_ Z N _ ..d n ...................... .8 S | H C F { | / F G s = H  .......` 2 y =.=.=.=.=.",
"=.=.=.=.=.u = 1 G  ..... .p n ......F : u u > Z E 3 | ...._ h 8 i S { ....' 2 E e 9 k q 7 F F G D = s _ .... .F : X =.=.=.=.=.=.",
"=.=.=.=.=.u C F 1 8 F ] | ( - J ..} 2 Q *.*.o.> D 2 ) ..[ 3 a D C 7 h  ...G 5 p k %.*.&.k 8 G F p = F [ [ F 8 1 D 7 =.=.=.=.=.=.",
"=.=.=.=.=.z m ..] B 3 1 5 3 O - _ E 0 &.*.*.*.z p i S ..| ' ...... .[ ....n i 4 @.*.*.*.^ - F M O @ - 2 : 3 B [ ..3 =.=.=.=.=.=.",
"=.=.=.=.=.=.s ......| _ J H F - 8 s k *.*.*.&.k g M g .................. .8 C 5 @.*.*.*.@., M - 8 m h F ` | ....} 2 =.=.=.=.=.=.",
"=.=.=.=.=.=.8 .............. .D & @ b *.*.*.o.> G J 7 | ................{ 2 ( 8 T *.*.*.%.< $ 3 F G / .........._ ; =.=.=.=.=.=.",
"=.=.=.=.=.=.2 | ..............' M O P *.*.&.L 1 | _ 2 { ......} | ......_ - G n < $.*.*.&., = D G G { ..........S < =.=.=.=.=.=.",
"=.=.=.=.=.=., _ .............. .( 6 L *.*.X.* h _ ( 1 _ ../ e 2 5 h [ ..J - D G 1 b *.*.&.< m G F _ ..........[ p u =.=.=.=.=.=.",
"=.=.=.=.=.=.r D ................| p b *.$.t 3 F F F - / ..Z M / H h ( ..D 1 G G Z = ~ *.%.< C G / | ........| J 1 =.=.=.=.=.=.=.",
"=.=.=.=.=.=.=.p ..................Z k &.x . 7 S G G 1 F ................C 3 H F B $ * o.$., Z J } .........._ S = =.=.=.=.=.=.=.",
"=.=.=.=.=.=.=.: [ ................/ , j & a 1 $ 8 M 1 D ................n 6 n 3 $ 7 8 , v - G { ..........' H s 9 =.=.=.=.=.=.=.",
"=.=.=.=.=.=.=.q D ................| a 8 S G F n 5 $ X Z ................s X & 8 C G F s - n { ..........{ H F 1 =.=.=.=.=.=.=.=.",
"=.=.=.=.=.=.=.=.5  ................... .} / F F F Z : M ................p 7 D G G G F G / | ..........{ J F N * =.=.=.=.=.=.=.=.",
"=.=.=.=.=.=.=.=., H ...................... .` H F G 8 n ................i a G G F F J ' ............} J F F 6 z =.=.=.=.=.=.=.=.",
"=.=.=.=.=.=.=.=.=.7 | ............{ ] { | ....| _ J 8 n ................8 s G G J `  ...| { ] { ..} K G G B & =.=.=.=.=.=.=.=.=.",
"=.=.=.=.=.=.=.=.=.< D ........J i 1 : : 3 a F [ .. .g n ................i h ) [  .[ G s 3 : : 1 8 m F F F 1 =.=.=.=.=.=.=.=.=.=.",
"=.=.=.=.=.=.=.=.=.=.- ' ..| n : M / ` _ J M 5 - s ) h m ................i D .._ h 1 3 n H _ ' ) C $ 6 D g ; =.=.=.=.=.=.=.=.=.=.",
"=.=.=.=.=.=.=.=.=.=.k 7 [ M 2 _ ............| ( h - # B ................p m n - p / | ............J - 1 & =.=.=.=.=.=.=.=.=.=.=.",
"=.=.=.=.=.=.=.=.=.=.=.4 3 - ) ..................| 3 . Z ................d O e ) ..................} Z O j =.=.=.=.=.=.=.=.=.=.=.",
"=.=.=.=.=.=.=.=.=.=.=.=.+ h ....................N 6 3 D ................n e | ......................( 8 u =.=.=.=.=.=.=.=.=.=.=.",
"=.=.=.=.=.=.=.=.=.=.=.=.> / ..................] : / 8 G ................N d ........................` C ; =.=.=.=.=.=.=.=.=.=.=.",
"=.=.=.=.=.=.=.=.=.=.=.=.1 } ..................S e | 3 / ................J d ........................[ F - =.=.=.=.=.=.=.=.=.=.=.",
"=.=.=.=.=.=.=.=.=.=.=.=.8 ....................a C } 1 _ ................} N  .......................{ H 3 =.=.=.=.=.=.=.=.=.=.=.",
"=.=.=.=.=.=.=.=.=.=.=.=.s ....................p H } d { ................ .Z { ......................| J 8 z =.=.=.=.=.=.=.=.=.=.",
"=.=.=.=.=.=.=.=.=.=.=.z m .................. .C ` .. ................... .Z } ......................| J p f =.=.=.=.=.=.=.=.=.=.",
"=.=.=.=.=.=.=.=.=.=.=.z C ....................D ' ......................{ Z ........................| J s t =.=.=.=.=.=.=.=.=.=.",
"=.=.=.=.=.=.=.=.=.=.=.z C ....{ ) ' ........../ G ....................../ S ) ' ..............` H ( { J s t =.=.=.=.=.=.=.=.=.=.",
"=.=.=.=.=.=.=.=.=.=.=.=.h ..F , 4 : h ) m p C _ s { ..................| e & 4 , g ( M p B ' B , w < e F e k =.=.=.=.=.=.=.=.=.=.",
"=.=.=.=.=.=.=.=.=.=.=.=.3 / , Q %.O.q # z Y y & , A | ................N # Q %.O.r # k I u & 4 o.&.#.q 8 1 =.=.=.=.=.=.=.=.=.=.=.",
"=.=.=.=.=.=.=.=.=.=.=.=., - b *.*.*.k L *.*.&.u x T B ' ..........{ m # x *.*.*.x v *.*.*.k z *.*.%.P X * =.=.=.=.=.=.=.=.=.=.=.",
"=.=.=.=.=.=.=.=.=.=.=.=.=.o k %.*.&.w o.*.*.*.W q ~ Y f n H ( E S V k . y %.*.*.r X.*.*.*.! u *.$.Q y . =.=.=.=.=.=.=.=.=.=.=.=.",
"=.=.=.=.=.=.=.=.=.=.=.=.=.=.> < v R * L O.@.o.k % u q % % =.=.=.=.=.=.=.* > c R > b O.@.o.z % z w % ; =.=.=.=.=.=.=.=.=.=.=.=.=.",
"=.=.=.=.=.=.=.=.=.=.=.=.=.=.=.=.w % o . + % +   . + < =.=.=.=.=.=.=.=.=.=.=.9 # .   + + o   . % q =.=.=.=.=.=.=.=.=.=.=.=.=.=.=."
};
